<?xml version="1.0" standalone="no"?><!DOCTYPE svg PUBLIC "-//W3C//DTD SVG 1.1//EN" "http://www.w3.org/Graphics/SVG/1.1/DTD/svg11.dtd"><svg t="1540785394255" class="icon" style="" viewBox="0 0 1024 1024" version="1.1" xmlns="http://www.w3.org/2000/svg" p-id="1063" xmlns:xlink="http://www.w3.org/1999/xlink" width="32" height="32"><defs><style type="text/css"></style></defs><path d="M919.466667 196.266667c-12.8-10.666667-42.666667-23.466667-110.933334-23.466667-29.866667 0-64 2.133333-102.4 8.533333-110.933333 14.933333-164.266667 40.533333-189.866666 57.6-25.6-17.066667-78.933333-42.666667-189.866667-57.6-38.4-4.266667-72.533333-8.533333-102.4-8.533333-76.8 0-106.666667 17.066667-113.066667 23.466667-19.2 12.8-32 38.4-32 61.866666v484.266667c0 29.866667 23.466667 55.466667 53.333334 55.466667 4.266667 0 10.666667 0 14.933333-2.133334 0 0 32-8.533333 91.733333-8.533333 23.466667 0 46.933333 2.133333 70.4 4.266667 123.733333 12.8 166.4 44.8 166.4 44.8 10.666667 10.666667 25.6 14.933333 40.533334 14.933333 12.8 0 25.6-4.266667 36.266666-10.666667 0 0 42.666667-27.733333 170.666667-49.066666 21.333333-4.266667 42.666667-4.266667 64-4.266667 53.333333 0 93.866667 10.666667 93.866667 10.666667 4.266667 2.133333 10.666667 2.133333 14.933333 2.133333 10.666667 0 25.6-4.266667 38.4-19.2 8.533333-10.666667 8.533333-25.6 8.533333-34.133333V258.133333c2.133333-8.533333 0-42.666667-23.466666-61.866666z m-17.066667 546.133333c0 8.533333 0 8.533333-2.133333 10.666667-4.266667 4.266667-4.266667 2.133333-6.4 2.133333 0 0-44.8-12.8-106.666667-12.8-23.466667 0-49.066667 2.133333-70.4 6.4-138.666667 23.466667-183.466667 53.333333-189.866667 57.6-6.4 4.266667-14.933333 4.266667-23.466666-2.133333-4.266667-4.266667-53.333333-42.666667-189.866667-55.466667-25.6-2.133333-51.2-4.266667-74.666667-4.266667-68.266667 0-102.4 10.666667-102.4 10.666667h-4.266666c-6.4 0-10.666667-6.4-10.666667-12.8V258.133333c0-10.666667 6.4-23.466667 12.8-27.733333 0 0 21.333333-14.933333 87.466667-14.933333 27.733333 0 61.866667 2.133333 98.133333 8.533333 106.666667 14.933333 151.466667 38.4 170.666667 51.2v320c0 12.8 8.533333 21.333333 21.333333 21.333333s21.333333-8.533333 21.333333-21.333333V279.466667c10.666667-10.666667 55.466667-40.533333 177.066667-55.466667 36.266667-4.266667 70.4-8.533333 98.133333-8.533333 66.133333 0 83.2 12.8 83.2 14.933333 6.4 4.266667 10.666667 17.066667 10.666667 27.733333v484.266667z" fill="#666666" p-id="1064"></path><path d="M512 682.666667m-32 0a32 32 0 1 0 64 0 32 32 0 1 0-64 0Z" fill="#666666" p-id="1065"></path></svg>